<?xml version="1.0" encoding="iso-8859-1"?>
<!-- Generator: Adobe Illustrator 19.0.0, SVG Export Plug-In . SVG Version: 6.00 Build 0)  -->
<svg version="1.1" id="Layer_1" xmlns="http://www.w3.org/2000/svg" xmlns:xlink="http://www.w3.org/1999/xlink" x="0px" y="0px"
	 viewBox="0 0 512.004 512.004" style="enable-background:new 0 0 512.004 512.004;" xml:space="preserve">
<g>
	<g>
		<path d="M507.312,4.692c-6.256-6.256-16.368-6.256-22.624,0L4.88,484.5c-6.256,6.256-6.256,16.368,0,22.624
			c3.12,3.12,7.216,4.688,11.312,4.688s8.176-1.552,11.312-4.688L507.312,27.316C513.568,21.06,513.568,10.948,507.312,4.692z"/>
	</g>
</g>
<g>
	<g>
		<path d="M112.144,0.18C50.32,0.18,0,50.468,0,112.276C0,174.1,50.32,224.404,112.144,224.404
			c61.808,0,112.112-50.288,112.112-112.128C224.256,50.468,173.952,0.18,112.144,0.18z M112.144,192.42
			C67.952,192.42,32,156.484,32,112.292c0-44.16,35.952-80.096,80.144-80.096c44.176,0,80.112,35.936,80.112,80.096
			C192.256,156.484,156.32,192.42,112.144,192.42z"/>
	</g>
</g>
<g>
	<g>
		<path d="M399.696,287.748c-61.808,0-112.112,50.304-112.112,112.112c0,61.824,50.304,112.144,112.112,112.144
			c61.824,0,112.112-50.32,112.112-112.144C511.808,338.052,461.504,287.748,399.696,287.748z M399.696,480.004
			c-44.176,0-80.112-35.952-80.112-80.144c0-44.176,35.936-80.112,80.112-80.112c44.176,0,80.112,35.936,80.112,80.112
			C479.808,444.052,443.872,480.004,399.696,480.004z"/>
	</g>
</g>
<g>
</g>
<g>
</g>
<g>
</g>
<g>
</g>
<g>
</g>
<g>
</g>
<g>
</g>
<g>
</g>
<g>
</g>
<g>
</g>
<g>
</g>
<g>
</g>
<g>
</g>
<g>
</g>
<g>
</g>
</svg>
